<svg width="140" height="140" viewBox="0 0 140 140" fill="none" xmlns="http://www.w3.org/2000/svg">
<path d="M57.0499 55.6111C69.9366 55.6111 80.3833 45.1644 80.3833 32.2777C80.3833 19.3911 69.9366 8.9444 57.0499 8.9444C44.1633 8.9444 33.7166 19.3911 33.7166 32.2777C33.7166 45.1644 44.1633 55.6111 57.0499 55.6111Z" fill="#F24E1E"/>
<path d="M63.9333 123.744C62.6482 122.473 61.8096 120.82 61.5431 119.032C61.2767 117.244 61.5968 115.418 62.4556 113.828L64.5167 109.939L60.2778 108.656C58.5492 108.115 57.0443 107.024 55.9916 105.55C54.9388 104.077 54.3956 102.3 54.4444 100.489V92.5167C54.4412 90.7141 55.0179 88.9582 56.0893 87.5086C57.1608 86.0589 58.6702 84.9924 60.3944 84.4667L64.6333 83.1833L62.6111 79.2945C61.7776 77.7256 61.4604 75.9337 61.7048 74.1741C61.9492 72.4144 62.7427 70.7768 63.9722 69.4945C60.9804 69.1023 57.9673 68.8944 54.95 68.8722C46.0379 68.6624 37.1893 70.4218 29.0354 74.0249C20.8814 77.628 13.623 82.9859 7.77777 89.7167V119.856C7.77777 120.887 8.18749 121.876 8.9168 122.605C9.64611 123.335 10.6353 123.744 11.6667 123.744H63.9333Z" fill="#F24E1E"/>
<path d="M131.056 91.2333L123.278 88.9C122.739 86.9793 121.982 85.1265 121.022 83.3778L124.911 76.1444C125.061 75.876 125.116 75.5645 125.067 75.2608C125.018 74.9571 124.867 74.6792 124.639 74.4722L119 68.7944C118.783 68.5831 118.506 68.4436 118.207 68.3949C117.908 68.3462 117.601 68.3907 117.328 68.5222L110.133 72.4111C108.362 71.4491 106.499 70.6674 104.572 70.0778L102.2 62.3C102.096 62.0132 101.905 61.7658 101.654 61.5917C101.404 61.4176 101.105 61.3254 100.8 61.3278H92.7112C92.4079 61.3362 92.1147 61.4378 91.8712 61.6187C91.6277 61.7996 91.4457 62.051 91.35 62.3389L89.0167 70.1167C87.0522 70.6882 85.1601 71.4842 83.3778 72.4889L76.3389 68.6C76.0653 68.4546 75.7528 68.3988 75.4457 68.4407C75.1387 68.4826 74.8526 68.6199 74.6278 68.8333L68.9112 74.4333C68.6861 74.6503 68.5377 74.9346 68.4886 75.2433C68.4395 75.5521 68.4923 75.8684 68.6389 76.1444L72.5278 83.2222C71.486 84.9788 70.6385 86.8434 70 88.7833L62.2223 91.1556C61.9281 91.2406 61.6698 91.4198 61.4872 91.6656C61.3046 91.9115 61.2076 92.2104 61.2112 92.5167V100.489C61.2076 100.795 61.3046 101.094 61.4872 101.34C61.6698 101.586 61.9281 101.765 62.2223 101.85L70 104.222C70.583 106.127 71.3651 107.965 72.3334 109.706L68.4445 117.094C68.2978 117.371 68.2451 117.687 68.2942 117.996C68.3433 118.304 68.4916 118.589 68.7167 118.806L74.5112 124.444C74.7359 124.658 75.022 124.795 75.3291 124.837C75.6361 124.879 75.9486 124.823 76.2223 124.678L83.4945 120.789C85.2251 121.72 87.0503 122.463 88.9389 123.006L91.2723 130.978C91.3701 131.272 91.558 131.528 91.8092 131.709C92.0604 131.891 92.3624 131.988 92.6723 131.989H100.644C100.948 131.98 101.241 131.879 101.484 131.698C101.728 131.517 101.91 131.266 102.006 130.978L104.339 123.006C106.205 122.47 108.005 121.726 109.706 120.789L117.056 124.678C117.329 124.823 117.642 124.879 117.949 124.837C118.256 124.795 118.542 124.658 118.767 124.444L124.444 118.806C124.658 118.581 124.795 118.295 124.837 117.988C124.879 117.681 124.823 117.368 124.678 117.094L120.789 109.783C121.719 108.08 122.462 106.28 123.006 104.417L130.783 102.044C131.076 101.95 131.332 101.77 131.52 101.527C131.707 101.284 131.817 100.99 131.833 100.683V92.6333C131.843 92.3514 131.776 92.0722 131.638 91.8255C131.501 91.5789 131.3 91.3742 131.056 91.2333ZM96.7167 109.589C94.1461 109.597 91.631 108.841 89.4899 107.419C87.3488 105.996 85.6779 103.97 84.6889 101.598C83.6998 99.2249 83.437 96.6121 83.9338 94.0899C84.4306 91.5678 85.6646 89.2497 87.4795 87.4293C89.2945 85.6089 91.6088 84.3679 94.1295 83.8636C96.6501 83.3593 99.2637 83.6142 101.639 84.5962C104.015 85.5781 106.046 87.2429 107.475 89.3797C108.904 91.5166 109.667 94.0294 109.667 96.6C109.667 100.038 108.304 103.336 105.876 105.771C103.449 108.206 100.155 109.579 96.7167 109.589Z" fill="#F24E1E"/>
</svg>
