<svg width="30" height="30" viewBox="0 0 30 30" fill="none" xmlns="http://www.w3.org/2000/svg">
<path d="M2.54357 9.47368H27.4543L25.965 27.0395C25.8969 27.8412 25.4166 28.5937 24.622 29.1437C23.8273 29.6938 22.7781 30 21.6879 30H8.31214C7.2219 30 6.17266 29.6938 5.37804 29.1437C4.58341 28.5937 4.10314 27.8412 4.035 27.0395L2.54357 9.47368ZM30 4.73684V7.89474H0V4.73684H6.42857V3.15789C6.42857 2.32037 6.8801 1.51715 7.68383 0.924926C8.48756 0.332706 9.57764 0 10.7143 0H19.2857C20.4224 0 21.5124 0.332706 22.3162 0.924926C23.1199 1.51715 23.5714 2.32037 23.5714 3.15789V4.73684H30ZM10.7143 4.73684H19.2857V3.15789H10.7143V4.73684Z" fill="#F24E1E"/>
</svg>
