<svg width="35" height="26" viewBox="0 0 35 26" fill="none" xmlns="http://www.w3.org/2000/svg">
<path d="M12.499 12.7344C12.499 13.8947 12.9599 15.0075 13.7804 15.828C14.6009 16.6484 15.7137 17.1094 16.874 17.1094C18.0343 17.1094 19.1471 16.6484 19.9676 15.828C20.7881 15.0075 21.249 13.8947 21.249 12.7344C21.249 11.5741 20.7881 10.4613 19.9676 9.64078C19.1471 8.82031 18.0343 8.35938 16.874 8.35938C15.7137 8.35938 14.6009 8.82031 13.7804 9.64078C12.9599 10.4613 12.499 11.5741 12.499 12.7344ZM33.8349 11.7266C30.1318 3.92578 24.5342 0 17.0303 0C9.52244 0 3.92869 3.92578 0.225568 11.7305C0.0770338 12.045 0 12.3885 0 12.7363C0 13.0842 0.0770338 13.4277 0.225568 13.7422C3.92869 21.543 9.52635 25.4688 17.0303 25.4688C24.5381 25.4688 30.1318 21.543 33.8349 13.7383C34.1357 13.1055 34.1357 12.3711 33.8349 11.7266ZM16.874 19.6094C13.0771 19.6094 9.999 16.5312 9.999 12.7344C9.999 8.9375 13.0771 5.85938 16.874 5.85938C20.6709 5.85938 23.749 8.9375 23.749 12.7344C23.749 16.5312 20.6709 19.6094 16.874 19.6094Z" fill="#F24E1E"/>
</svg>
