<svg width="135" height="135" viewBox="0 0 135 135" fill="none" xmlns="http://www.w3.org/2000/svg">
<path d="M135 111.709C135 118.096 132.803 123.574 128.408 128.145C124.014 132.715 118.723 135 112.535 135H22.4648C16.2773 135 10.9863 132.715 6.5918 128.145C2.19727 123.574 0 118.096 0 111.709C0 106.729 0.298828 102.026 0.896484 97.6025C1.49414 93.1787 2.60156 88.7256 4.21875 84.2432C5.83594 79.7607 7.89258 75.9229 10.3887 72.7295C12.8848 69.5361 16.1895 66.9287 20.3027 64.9072C24.416 62.8857 29.1445 61.875 34.4883 61.875C43.6992 69.375 54.7031 73.125 67.5 73.125C80.2969 73.125 91.3008 69.375 100.512 61.875C105.855 61.875 110.584 62.8857 114.697 64.9072C118.811 66.9287 122.115 69.5361 124.611 72.7295C127.107 75.9229 129.164 79.7607 130.781 84.2432C132.398 88.7256 133.506 93.1787 134.104 97.6025C134.701 102.026 135 106.729 135 111.709ZM108 33.75C108 43.0664 104.045 51.0205 96.1348 57.6123C88.2246 64.2041 78.6797 67.5 67.5 67.5C56.3203 67.5 46.7754 64.2041 38.8652 57.6123C30.9551 51.0205 27 43.0664 27 33.75C27 24.4336 30.9551 16.4795 38.8652 9.8877C46.7754 3.2959 56.3203 0 67.5 0C78.6797 0 88.2246 3.2959 96.1348 9.8877C104.045 16.4795 108 24.4336 108 33.75Z" fill="#F24E1E"/>
</svg>
